# xmcd
#
# Track frame offsets:
#  150
#  20202
#  42975
#  67221
#  83136
#  105267
#  135992
#  163298
#  184165
#  198238
#  228426
#
# Disc length: 3339 seconds
#
# Revision: 0
# Processed by: cddbd v1.5.2PL0 Copyright (c) Steve Scherf et al.
# Submitted via: AltoMP3_Maker 3.0
#
DISCID=940d090b
DTITLE=Ultraviolet - Dos (bonus disc)
DYEAR=1900
DGENRE=
TTITLE0=Feel me, heal me and touch me (Tranquilid
TTITLE1=The best part of me (Debod remix)
TTITLE2=Another day in the week (Debod remix)
TTITLE3=This is what a pain is for (Fatazja remix)
TTITLE4=Electronic love machine (Rupesh Cartel rem
TTITLE5=Stage 2.0 (Punki/spoweck remix)
TTITLE6=Colder (Hibernation mix)
TTITLE7=BeLIEve (Com.pulsion remix)
TTITLE8=No rejection (Audrey needs calm remix)
TTITLE9=To suffer your pain (Lorena C fea. Siberia r
TTITLE10=The speed of love (Estatuas del sol remix)
EXTD=
EXTT0=
EXTT1=
EXTT2=
EXTT3=
EXTT4=
EXTT5=
EXTT6=
EXTT7=
EXTT8=
EXTT9=
EXTT10=
PLAYORDER=
